<svg width="24" height="25" viewBox="0 0 24 25" fill="none" xmlns="http://www.w3.org/2000/svg">
<path fill-rule="evenodd" clip-rule="evenodd" d="M2.25 9.5C2.25 9.08579 2.58579 8.75 3 8.75L4 8.75C4.41421 8.75 4.75 9.08579 4.75 9.5C4.75 9.91421 4.41421 10.25 4 10.25L3 10.25C2.58579 10.25 2.25 9.91421 2.25 9.5Z" fill="#292D32"/>
<path fill-rule="evenodd" clip-rule="evenodd" d="M3.25 15.5C3.25 15.0858 3.58579 14.75 4 14.75L5 14.75C5.41421 14.75 5.75 15.0858 5.75 15.5C5.75 15.9142 5.41421 16.25 5 16.25L4 16.25C3.58579 16.25 3.25 15.9142 3.25 15.5Z" fill="#292D32"/>
<path fill-rule="evenodd" clip-rule="evenodd" d="M1.25 12.5C1.25 12.0858 1.58579 11.75 2 11.75L5 11.75C5.41421 11.75 5.75 12.0858 5.75 12.5C5.75 12.9142 5.41421 13.25 5 13.25L2 13.25C1.58579 13.25 1.25 12.9142 1.25 12.5Z" fill="#292D32"/>
<path fill-rule="evenodd" clip-rule="evenodd" d="M2 2.75C1.58579 2.75 1.25 3.08579 1.25 3.5C1.25 3.91421 1.58579 4.25 2 4.25H4.66315C5.00152 4.25 5.29799 4.47658 5.38683 4.80308L6.03369 7.18026L8.11232 16.4903C8.34193 17.5187 9.25452 18.25 10.3083 18.25H18.4536C19.5074 18.25 20.42 17.5187 20.6496 16.4903L22.3241 8.99029C22.638 7.58454 21.5685 6.25 20.1282 6.25H7.33509L6.83421 4.40924C6.56767 3.42973 5.67827 2.75 4.66315 2.75H2ZM17.5541 11.0055C17.8332 10.6995 17.8115 10.2251 17.5055 9.94593C17.1995 9.66676 16.7251 9.68852 16.4459 9.99453L14.2857 12.3624L13.5737 11.5169C13.3069 11.2001 12.8337 11.1595 12.5169 11.4263C12.2001 11.6931 12.1595 12.1663 12.4263 12.4831L13.6895 13.9831C13.8286 14.1484 14.0323 14.2456 14.2483 14.2499C14.4643 14.2541 14.6716 14.1651 14.8172 14.0055L17.5541 11.0055Z" fill="#292D32"/>
<path d="M13 21C13 21.8284 12.3284 22.5 11.5 22.5C10.6716 22.5 10 21.8284 10 21C10 20.1716 10.6716 19.5 11.5 19.5C12.3284 19.5 13 20.1716 13 21Z" fill="#292D32"/>
<path d="M19 21C19 21.8284 18.3284 22.5 17.5 22.5C16.6716 22.5 16 21.8284 16 21C16 20.1716 16.6716 19.5 17.5 19.5C18.3284 19.5 19 20.1716 19 21Z" fill="#292D32"/>
</svg>
